<?xml version="1.0" encoding="utf-8"?>
<!-- Generator: Adobe Illustrator 24.0.0, SVG Export Plug-In . SVG Version: 6.00 Build 0)  -->
<svg version="1.1" id="레이어_1" xmlns="http://www.w3.org/2000/svg" xmlns:xlink="http://www.w3.org/1999/xlink" x="0px"
	 y="0px" viewBox="0 0 544.11 191.07" style="enable-background:new 0 0 544.11 191.07;" xml:space="preserve">
<style type="text/css">
	.st0{fill:#6BBFE3;}
</style>
<g>
	<path class="st0" d="M541.56,37.29l-0.35-0.49c-3.32-1.96-5.72-2.65-7.82-2.94c-2.08-0.25-3.76,0.06-5.15,0.77
		c-0.69,0.36-1.29,0.85-1.94,1.28l-1.9,1.33l-3.81,2.66c-5.09,3.53-10.21,7.02-15.35,10.47c-10.29,6.9-20.68,13.62-31.19,20.15
		c-9.42,5.88-18.92,11.6-28.52,17.17l-16.31-6.75c-0.8-0.33-1.68-0.48-2.6-0.41c-0.92,0.08-1.77,0.37-2.5,0.83l-3.23,1.65
		c-0.85,0.43-1.48,1.25-1.64,2.25c-0.16,1.01,0.18,1.98,0.85,2.66l8.99,9.09c-6.41,3.55-12.86,7.03-19.36,10.42
		c-43.76,22.91-89.48,42.19-136.98,55.19c-5.94,1.62-11.9,3.11-17.89,4.51c-5.99,1.41-12,2.69-18.03,3.86
		c-12.07,2.33-24.23,4.11-36.44,5.38c-12.21,1.25-24.48,1.88-36.74,1.82c-12.26-0.04-24.52-0.82-36.67-2.46
		c-12.15-1.61-24.18-4.1-35.93-7.6c-11.76-3.47-23.19-8.04-34.11-13.69c-10.9-5.66-21.22-12.52-30.57-20.6
		c-4.69-4.01-9.14-8.33-13.29-12.94c-2.08-2.3-4.08-4.68-6-7.12c-1.94-2.43-3.78-4.94-5.55-7.51L1,106.59c1.55,2.71,3.2,5.39,4.94,8
		c1.75,2.61,3.59,5.16,5.52,7.64c3.86,4.98,8.05,9.7,12.54,14.15c9.01,8.87,19.18,16.59,30.05,23.15
		c10.87,6.58,22.5,11.9,34.48,16.2c11.99,4.28,24.36,7.46,36.88,9.76c12.53,2.27,25.21,3.62,37.91,4.23
		c12.71,0.59,25.44,0.4,38.12-0.41c12.68-0.79,25.3-2.29,37.84-4.27c12.53-1.99,24.98-4.5,37.29-7.51
		c12.32-2.99,24.52-6.42,36.59-10.23c12.06-3.84,24-8.06,35.8-12.6c5.9-2.27,11.77-4.62,17.61-7.05c5.83-2.44,11.63-4.96,17.39-7.55
		c11.53-5.17,22.92-10.62,34.19-16.32c21.17-10.76,41.87-22.4,62.12-34.73l29.64,62.13c0.44,0.93,1.34,1.61,2.44,1.74
		c1.1,0.12,2.12-0.35,2.76-1.16l4.61-5.85c1.57-1.99,2.7-4.36,3.24-7.01c0.53-2.65,0.4-5.27-0.27-7.71l-16.2-58.67
		c3.15-2.06,6.3-4.12,9.43-6.21c5.24-3.49,10.45-7.02,15.64-10.59l3.88-2.69l1.94-1.35c0.64-0.46,1.31-0.87,1.9-1.41
		c1.16-1.08,2.03-2.58,2.5-4.63C542.19,43.57,542.33,41.06,541.56,37.29z"/>
	<path class="st0" d="M466.27,66.62l28.22-17.52L443.79,5.27c-2.02-1.74-4.46-3.06-7.22-3.75c-2.77-0.69-5.54-0.68-8.14-0.09
		l-7.66,1.74c-1.06,0.24-1.97,1.01-2.35,2.11c-0.38,1.1-0.13,2.27,0.55,3.11L466.27,66.62z"/>
</g>
</svg>
